# xmcd
#
# Track frame offsets: 
#        150
#        15210
#        26553
#        37447
#        51864
#        64473
#        77458
#        90014
#        105527
#        119273
#        129991
#        144509
#        159760
#        174666
#        187515
#        213021
#
# Disc length: 3048 seconds
#
# Revision: 0
# Processed by: cddbd v1.5PL3 Copyright (c) Steve Scherf et al.
# Submitted via: ExactAudioCopy v0.95a5
#
DISCID=bc0be610
DTITLE=Various Artist - Bluegrass All Stars
DYEAR=2003
DGENRE=Bluegrass
TTITLE0=Nickel Creek - Smoothie Song
TTITLE1=The Gibson Brothers - The Open Road
TTITLE2=Alan Bibey - Country Fool
TTITLE3=Jerry Douglas - I Don't Believe You've Met My Baby
TTITLE4=Don Rigsby - I am A Little Scholar
TTITLE5=Jim Mills - Bear Tracks
TTITLE6=Baucom, Bibey, and BlueRidge - It's All My Fault
TTITLE7=Doyle Lawson and Quicksilver - Blue Train (Of The Heartbreak Lin
TTITLE7=e)
TTITLE8=Ronnie Bowman - Stone Cold Blue
TTITLE9=Lonesome River Band - Don't Worry 'Bout Daddy
TTITLE10=Bryan Sutton - Daley's Reel
TTITLE11=Tim O'Brien - Maggie's Farm
TTITLE12=The Seldome Scene - Highway Of Heartache
TTITLE13=Randy Howard - New Camptown Races
TTITLE14=Sam Bush - Same Ol' River
TTITLE15=Byron Berline - Rose Of Old Kentucky
EXTD=
EXTT0=
EXTT1=
EXTT2=
EXTT3=
EXTT4=
EXTT5=
EXTT6=
EXTT7=
EXTT8=
EXTT9=
EXTT10=
EXTT11=
EXTT12=
EXTT13=
EXTT14=
EXTT15=
PLAYORDER=
